<svg xmlns="http://www.w3.org/2000/svg" xmlns:svg="http://www.w3.org/2000/svg" xmlns:xlink="http://www.w3.org/1999/xlink" version="1.0" height="590pt" width="370pt" viewBox="255 177 378 596" ><defs><style type="text/css">
            @font-face {
                font-family: 'noto_regular';
                src: url('https://app.creately.com/diagram/assets/fonts/noto/noto-regular.woff') format('woff'),
                     url('https://app.creately.com/diagram/assets/fonts/noto/noto-regular.woff2') format('woff2');
                font-weight: normal;
                font-style: normal;
            }
        p {
            margin: 0;
        }
        </style></defs><defs><style>
            span{ display: inline-block; }
        </style></defs><g id="jRF1D4MbOup"><g transform="translate(440 180)"><ellipse cx="10" cy="10" rx="10" ry="10" fill="rgb(66,146,136)" stroke="#429288" stroke-width="2" stroke-linecap="round" stroke-linejoin="round"/></g></g><g id="8yYHBPsbdyy"><g><path d="M 450,200 L 450,260" fill="none" stroke="#7C7B7A" stroke-width="2" stroke-linecap="round" stroke-linejoin="round"/><path d="M 450,260 L 456.49717514124296,253.04347826086956 M 450,260 L 443.50282485875704,253.04347826086956 Z" fill="rgb(255,255,255)" stroke="#7C7B7A" stroke-width="2" stroke-linecap="round" stroke-linejoin="round"/></g></g><g id="RaukctoTGHU"><g><path d="M 450,300 L 450,350" fill="none" stroke="#7C7B7A" stroke-width="2" stroke-linecap="round" stroke-linejoin="round"/><path d="M 450,350 L 456.49717514124296,343.04347826086956 M 450,350 L 443.50282485875704,343.04347826086956 Z" fill="rgb(255,255,255)" stroke="#7C7B7A" stroke-width="2" stroke-linecap="round" stroke-linejoin="round"/></g></g><g id="kAnLLbEZgcP"><g><path d="M 390,370 L 390,430 Q 390,440 380,440 L 355,440 L 330,440 Q 320,440 320,450 L 320,510" fill="none" stroke="#7C7B7A" stroke-width="2" stroke-linecap="round" stroke-linejoin="round"/><path d="M 320,510 L 326.49717514124296,503.04347826086956 M 320,510 L 313.50282485875704,503.04347826086956 Z" fill="rgb(255,255,255)" stroke="#7C7B7A" stroke-width="2" stroke-linecap="round" stroke-linejoin="round"/></g></g><g id="iPU7l27P3vV"><g><path d="M 510,370 L 510,430 Q 510,440 520,440 L 540,440 L 560,440 Q 570,440 570,450 L 570,510" fill="none" stroke="#7C7B7A" stroke-width="2" stroke-linecap="round" stroke-linejoin="round"/><path d="M 570,510 L 576.4971751412429,503.04347826086956 M 570,510 L 563.5028248587571,503.04347826086956 Z" fill="rgb(255,255,255)" stroke="#7C7B7A" stroke-width="2" stroke-linecap="round" stroke-linejoin="round"/></g></g><g id="yVfzsTRPY33"><g transform="translate(300 610)"><path d="M 20,0 L 0,20 L 20,40 L 40,20 L 20,0 Z" fill="rgb(255,255,255)" stroke="#429288" stroke-width="2" stroke-linecap="round" stroke-linejoin="round"/></g></g><g id="M1b5eTqDXih"><g><path d="M 320,550 L 320,610" fill="none" stroke="#7C7B7A" stroke-width="2" stroke-linecap="round" stroke-linejoin="round"/><path d="M 320,610 L 326.49717514124296,603.0434782608696 M 320,610 L 313.50282485875704,603.0434782608696 Z" fill="rgb(255,255,255)" stroke="#7C7B7A" stroke-width="2" stroke-linecap="round" stroke-linejoin="round"/></g></g><g id="nZV6LAsipEW"><g><path d="M 320,650 L 320,730" fill="none" stroke="#7C7B7A" stroke-width="2" stroke-linecap="round" stroke-linejoin="round"/><path d="M 320,730 L 326.49717514124296,723.0434782608696 M 320,730 L 313.50282485875704,723.0434782608696 Z" fill="rgb(255,255,255)" stroke="#7C7B7A" stroke-width="2" stroke-linecap="round" stroke-linejoin="round"/></g></g><g id="vQQT1ttNTNO"><g transform="translate(560 630)"><path d="L 20,10 A 10 10 0 1 0 19.999995000000418 10.009999998333337 M 18.5,10 L 18.5,10 A 8.5 8.5 0 1 1 18.499995750000352 9.99150000141666" fill="rgb(66,146,136)" stroke="#429288" stroke-width="2" stroke-linecap="round" stroke-linejoin="round"/><ellipse cx="10" cy="10" rx="5" ry="5" fill="rgb(66,146,136)" stroke="#429288" stroke-width="2" stroke-linecap="round" stroke-linejoin="round"/><path d="M 18.5,10 L 18.5,10 A 8.5 8.5 0 1 0 18.499995750000352 10.008499998583336 M 15,10 L 15,10 A 5 5 0 1 1 14.999997500000209 9.99500000083333" fill="rgba(255,255,255,0.01)" stroke="rgba(255,255,255,0.01)" stroke-width="2" stroke-linecap="round" stroke-linejoin="round"/></g></g><g id="V1PPuX0Kw9H"><g><path d="M 570,550 L 570,630" fill="none" stroke="#7C7B7A" stroke-width="2" stroke-linecap="round" stroke-linejoin="round"/><path d="M 570,630 L 576.4971751412429,623.0434782608696 M 570,630 L 563.5028248587571,623.0434782608696 Z" fill="rgb(255,255,255)" stroke="#7C7B7A" stroke-width="2" stroke-linecap="round" stroke-linejoin="round"/></g></g><g id="dDUDEPKhecq"><g transform="translate(390 260)"><path d="M 20,40 L 20,40 L 20,40 A 20 20 0 0 1 0 20.000000000000004 L 0,20 L 0,20.000000000000004 A 20 20 0 0 1 20 0 L 100,0 L 100,0 L 100,0 A 20 20 0 0 1 120 20 L 120,20 L 120,20 A 20 20 0 0 1 100 40 L 20,40 Z" fill="rgb(94,194,105)" stroke="#5ec269" stroke-width="2" stroke-linecap="round" stroke-linejoin="round"/></g><g transform="translate(430.26, 271) rotate(0, 19.74, 9)" width="39.48" height="18"><text text-decoration="none" x="0.7399999999999984" fill="rgb(255, 255, 255)" font-size="10pt" font-family="noto_regular"  y="17">Action</text><text text-decoration="none" x="38.739999999999995" fill="#4b4b4b" font-size="10pt" font-family="noto_regular"  y="17"></text></g></g><g id="HDU5ssGm5mH"><g transform="translate(380 350)"><rect x="0" y="0" width="140" height="20" fill="rgb(42,77,209)" stroke="#2a4dd1" stroke-width="2" stroke-linecap="round" stroke-linejoin="round"/></g></g><g id="daflctjy2Ru"><g transform="translate(260 510)"><path d="M 20,40 L 20,40 L 20,40 A 20 20 0 0 1 0 20.000000000000004 L 0,20 L 0,20.000000000000004 A 20 20 0 0 1 20 0 L 100,0 L 100,0 L 100,0 A 20 20 0 0 1 120 20 L 120,20 L 120,20 A 20 20 0 0 1 100 40 L 20,40 Z" fill="rgb(94,194,105)" stroke="#5ec269" stroke-width="2" stroke-linecap="round" stroke-linejoin="round"/></g><g transform="translate(300.26, 521) rotate(0, 19.74, 9)" width="39.48" height="18"><text text-decoration="none" x="0.7399999999999984" fill="rgb(255, 255, 255)" font-size="10pt" font-family="noto_regular"  y="17">Action</text><text text-decoration="none" x="38.739999999999995" fill="#4b4b4b" font-size="10pt" font-family="noto_regular"  y="17"></text></g></g><g id="Ggs9CDF7HzT"><g transform="translate(510 510)"><path d="M 20,40 L 20,40 L 20,40 A 20 20 0 0 1 0 20.000000000000004 L 0,20 L 0,20.000000000000004 A 20 20 0 0 1 20 0 L 100,0 L 100,0 L 100,0 A 20 20 0 0 1 120 20 L 120,20 L 120,20 A 20 20 0 0 1 100 40 L 20,40 Z" fill="rgb(94,194,105)" stroke="#5ec269" stroke-width="2" stroke-linecap="round" stroke-linejoin="round"/></g><g transform="translate(550.26, 521) rotate(0, 19.74, 9)" width="39.48" height="18"><text text-decoration="none" x="0.7399999999999984" fill="rgb(255, 255, 255)" font-size="10pt" font-family="noto_regular"  y="17">Action</text><text text-decoration="none" x="38.739999999999995" fill="#4b4b4b" font-size="10pt" font-family="noto_regular"  y="17"></text></g></g><g id="bOYOX5ysk9Y"><g transform="translate(260 730)"><path d="M 20,40 L 20,40 L 20,40 A 20 20 0 0 1 0 20.000000000000004 L 0,20 L 0,20.000000000000004 A 20 20 0 0 1 20 0 L 100,0 L 100,0 L 100,0 A 20 20 0 0 1 120 20 L 120,20 L 120,20 A 20 20 0 0 1 100 40 L 20,40 Z" fill="rgb(94,194,105)" stroke="#5ec269" stroke-width="2" stroke-linecap="round" stroke-linejoin="round"/></g><g transform="translate(300.26, 741) rotate(0, 19.74, 9)" width="39.48" height="18"><text text-decoration="none" x="0.7399999999999984" fill="rgb(255, 255, 255)" font-size="10pt" font-family="noto_regular"  y="17">Action</text><text text-decoration="none" x="38.739999999999995" fill="#4b4b4b" font-size="10pt" font-family="noto_regular"  y="17"></text></g></g></svg>